<svg width="610" height="338" viewBox="0 0 610 338" fill="none" xmlns="http://www.w3.org/2000/svg">
<path d="M311.566 317.318L310.806 317.045C310.638 316.985 294.015 310.881 286.229 297.042C278.442 283.201 282.254 266.537 282.294 266.371L282.473 265.612L283.233 265.885C283.4 265.945 300.022 272.049 307.81 285.889C315.598 299.729 311.784 316.393 311.745 316.56L311.566 317.318ZM287.476 296.397C294.059 308.099 307.195 314.097 310.523 315.467C311.156 312.048 313.141 298.224 306.563 286.533C299.986 274.844 286.845 268.837 283.515 267.464C282.882 270.885 280.898 284.708 287.476 296.397Z" fill="#3F3D56"/>
<path d="M292.179 292.186C306.173 300.255 311.563 316.282 311.563 316.282C311.563 316.282 294.264 319.226 280.27 311.158C266.276 303.089 260.886 287.062 260.886 287.062C260.886 287.062 278.185 284.118 292.179 292.186Z" fill="#00B77E"/>
<path d="M558.57 316.56C558.531 316.393 554.718 299.729 562.505 285.889C570.292 272.049 586.915 265.945 587.082 265.885L587.841 265.612L588.021 266.371C588.06 266.537 591.873 283.201 584.086 297.042C576.299 310.881 559.676 316.985 559.509 317.045L558.749 317.318L558.57 316.56ZM586.8 267.464C583.47 268.837 570.329 274.844 563.752 286.533C557.174 298.223 559.159 312.048 559.792 315.466C563.12 314.097 576.256 308.099 582.839 296.397C589.416 284.708 587.433 270.885 586.8 267.464Z" fill="#3F3D56"/>
<path d="M578.135 292.186C564.141 300.255 558.751 316.282 558.751 316.282C558.751 316.282 576.051 319.226 590.045 311.158C604.038 303.089 609.43 287.062 609.43 287.062C609.43 287.062 592.129 284.118 578.135 292.186Z" fill="#00A053"/>
<path d="M588.168 315.877H254.612V317.234H588.168V315.877Z" fill="#3F3D56"/>
<path d="M358.682 0H0V184.52H358.682V0Z" fill="#3F3D56"/>
<path d="M344.887 164.401H17.9941V171.874H344.887V164.401Z" fill="#D0CDE1"/>
<path d="M206.332 164.401H17.9941V171.874H206.332V164.401Z" fill="#00B77E"/>
<path d="M17.9941 158.909L17.9785 148.558L30.2061 153.716L17.9941 158.909Z" fill="#00B77E"/>
<path d="M41.3866 148.306H37.188V158.653H41.3866V148.306Z" fill="#00B77E"/>
<path d="M49.7836 148.306H45.585V158.653H49.7836V148.306Z" fill="#00B77E"/>
<path d="M338.889 143.707H19.7935V16.6699H338.889V143.707ZM20.9931 142.558H337.689V17.8196H20.9931V142.558Z" fill="#D0CDE1"/>
<path d="M179.941 108.068C195.51 108.068 208.132 95.972 208.132 81.0512C208.132 66.1303 195.51 54.0342 179.941 54.0342C164.372 54.0342 151.75 66.1303 151.75 81.0512C151.75 95.972 164.372 108.068 179.941 108.068Z" fill="#00B77E"/>
<path d="M250.132 61.0288H214.144V62.1785H250.132V61.0288Z" fill="#D0CDE1"/>
<path d="M142.767 106.44H106.779V107.59H142.767V106.44Z" fill="#D0CDE1"/>
<path d="M263.328 66.7766C262.26 66.7766 261.216 66.4731 260.329 65.9046C259.441 65.3361 258.749 64.5285 258.34 63.5829C257.932 62.6379 257.825 61.5974 258.033 60.5938C258.241 59.5901 258.756 58.6687 259.511 57.945C260.266 57.2214 261.227 56.7287 262.275 56.5291C263.322 56.3295 264.407 56.432 265.394 56.8235C266.38 57.215 267.223 57.8783 267.816 58.729C268.409 59.5798 268.726 60.58 268.726 61.6032C268.726 62.9753 268.157 64.2911 267.145 65.2614C266.132 66.2317 264.76 66.7766 263.328 66.7766ZM263.328 57.5794C262.497 57.5794 261.686 57.8156 260.995 58.2577C260.305 58.6997 259.767 59.328 259.449 60.0632C259.131 60.7984 259.048 61.6078 259.21 62.3884C259.372 63.1684 259.772 63.8858 260.359 64.4486C260.946 65.0113 261.694 65.3942 262.508 65.5494C263.323 65.7052 264.168 65.6253 264.935 65.3206C265.702 65.0159 266.357 64.5003 266.819 63.8387C267.28 63.1771 267.526 62.3987 267.526 61.6032C267.526 60.5357 267.084 59.5125 266.297 58.7578C265.509 58.003 264.441 57.5794 263.328 57.5794Z" fill="#D0CDE1"/>
<path d="M263.328 117.937C262.26 117.937 261.216 117.633 260.329 117.065C259.441 116.496 258.749 115.689 258.34 114.743C257.932 113.798 257.825 112.757 258.033 111.754C258.241 110.75 258.756 109.829 259.511 109.105C260.266 108.381 261.227 107.889 262.275 107.689C263.322 107.49 264.407 107.592 265.394 107.983C266.38 108.375 267.223 109.038 267.816 109.889C268.409 110.74 268.726 111.74 268.726 112.763C268.726 114.135 268.157 115.451 267.145 116.421C266.132 117.392 264.76 117.937 263.328 117.937ZM263.328 108.739C262.497 108.739 261.686 108.976 260.995 109.418C260.305 109.86 259.767 110.488 259.449 111.223C259.131 111.958 259.048 112.768 259.21 113.548C259.372 114.328 259.772 115.046 260.359 115.609C260.946 116.171 261.694 116.554 262.508 116.709C263.323 116.865 264.168 116.785 264.935 116.481C265.702 116.176 266.357 115.66 266.819 114.999C267.28 114.337 267.526 113.559 267.526 112.763C267.526 111.696 267.084 110.673 266.297 109.918C265.509 109.163 264.441 108.739 263.328 108.739Z" fill="#D0CDE1"/>
<path d="M282.522 117.937C281.454 117.937 280.41 117.633 279.523 117.065C278.635 116.496 277.943 115.689 277.534 114.743C277.126 113.798 277.019 112.757 277.227 111.754C277.435 110.75 277.949 109.829 278.705 109.105C279.46 108.381 280.421 107.889 281.468 107.689C282.516 107.49 283.601 107.592 284.587 107.983C285.574 108.375 286.417 109.038 287.01 109.889C287.603 110.74 287.92 111.74 287.92 112.763C287.92 114.135 287.351 115.451 286.339 116.421C285.326 117.392 283.953 117.937 282.522 117.937ZM282.522 108.739C281.691 108.739 280.879 108.976 280.189 109.418C279.499 109.86 278.961 110.488 278.643 111.223C278.325 111.958 278.241 112.768 278.403 113.548C278.566 114.328 278.965 115.046 279.553 115.609C280.14 116.171 280.888 116.554 281.702 116.709C282.517 116.865 283.361 116.785 284.129 116.481C284.896 116.176 285.551 115.66 286.013 114.999C286.474 114.337 286.72 113.559 286.72 112.763C286.72 111.696 286.278 110.673 285.491 109.918C284.703 109.163 283.635 108.739 282.522 108.739Z" fill="#D0CDE1"/>
<path d="M244.134 117.937C243.067 117.937 242.023 117.633 241.135 117.065C240.248 116.496 239.556 115.689 239.147 114.743C238.739 113.798 238.632 112.757 238.84 111.754C239.048 110.75 239.562 109.829 240.317 109.105C241.072 108.381 242.034 107.889 243.081 107.689C244.128 107.49 245.214 107.592 246.2 107.983C247.187 108.375 248.03 109.038 248.623 109.889C249.216 110.74 249.533 111.74 249.533 112.763C249.533 114.135 248.964 115.451 247.952 116.421C246.939 117.392 245.566 117.937 244.134 117.937ZM244.134 108.739C243.304 108.739 242.492 108.976 241.802 109.418C241.111 109.86 240.573 110.488 240.256 111.223C239.938 111.958 239.854 112.768 240.016 113.548C240.179 114.328 240.578 115.046 241.165 115.609C241.753 116.171 242.501 116.554 243.315 116.709C244.13 116.865 244.974 116.785 245.741 116.481C246.508 116.176 247.164 115.66 247.625 114.999C248.087 114.337 248.333 113.559 248.333 112.763C248.333 111.696 247.89 110.673 247.103 109.918C246.316 109.163 245.248 108.739 244.134 108.739Z" fill="#D0CDE1"/>
<path d="M91.7843 112.189C90.7167 112.189 89.673 111.885 88.7853 111.317C87.8976 110.748 87.2054 109.94 86.797 108.995C86.3885 108.05 86.2818 107.009 86.4899 106.006C86.698 105.002 87.212 104.081 87.9672 103.357C88.7224 102.633 89.6838 102.141 90.7311 101.941C91.7784 101.742 92.864 101.844 93.8501 102.235C94.8367 102.627 95.6795 103.29 96.2727 104.141C96.8659 104.992 97.1826 105.992 97.1826 107.015C97.1826 108.387 96.614 109.703 95.6015 110.673C94.589 111.644 93.2161 112.189 91.7843 112.189ZM91.7843 102.991C90.9536 102.991 90.1421 103.228 89.4517 103.67C88.7613 104.112 88.2233 104.74 87.9054 105.475C87.5875 106.21 87.5042 107.02 87.6661 107.8C87.8286 108.58 88.2281 109.298 88.8153 109.861C89.4025 110.423 90.1505 110.806 90.965 110.961C91.7796 111.117 92.6241 111.037 93.3912 110.733C94.1584 110.428 94.814 109.912 95.2752 109.251C95.7364 108.589 95.983 107.811 95.983 107.015C95.9818 105.948 95.5391 104.926 94.7516 104.171C93.9646 103.417 92.8976 102.992 91.7843 102.991Z" fill="#D0CDE1"/>
<path d="M72.5905 112.189C71.5229 112.189 70.4792 111.885 69.5915 111.317C68.7038 110.748 68.0116 109.94 67.6031 108.995C67.1947 108.05 67.0879 107.009 67.296 106.006C67.5042 105.002 68.0182 104.081 68.7734 103.357C69.5285 102.633 70.49 102.141 71.5372 101.941C72.5845 101.742 73.6702 101.844 74.6562 102.235C75.6429 102.627 76.4856 103.29 77.0788 104.141C77.672 104.992 77.9887 105.992 77.9887 107.015C77.9887 108.387 77.4201 109.703 76.4077 110.673C75.3952 111.644 74.0222 112.189 72.5905 112.189ZM72.5905 102.991C71.7598 102.991 70.9482 103.228 70.2579 103.67C69.5675 104.112 69.0295 104.74 68.7116 105.475C68.3937 106.21 68.3103 107.02 68.4723 107.8C68.6348 108.58 69.0343 109.298 69.6215 109.861C70.2087 110.423 70.9566 110.806 71.7712 110.961C72.5857 111.117 73.4302 111.037 74.1974 110.733C74.9645 110.428 75.6201 109.912 76.0814 109.251C76.5426 108.589 76.7891 107.811 76.7891 107.015C76.7879 105.948 76.3453 104.926 75.5577 104.171C74.7708 103.417 73.7037 102.992 72.5905 102.991Z" fill="#D0CDE1"/>
<path d="M263.928 71.3755H262.729V100.117H263.928V71.3755Z" fill="#D0CDE1"/>
<path d="M457.072 77.7507C457.072 77.7507 447.149 76.3918 442.187 94.0535C437.225 111.715 435.808 113.073 435.808 113.073C435.808 113.073 464.869 117.149 465.578 115.791C466.286 114.432 471.956 81.8263 457.072 77.7507Z" fill="#2F2E41"/>
<path d="M451.402 70.958C461.971 70.958 470.539 62.7466 470.539 52.6171C470.539 42.4878 461.971 34.2764 451.402 34.2764C440.833 34.2764 432.264 42.4878 432.264 52.6171C432.264 62.7466 440.833 70.958 451.402 70.958Z" fill="#FFB8B8"/>
<path d="M442.896 67.5615C442.896 67.5615 449.275 83.1848 447.149 85.2226C445.022 87.2604 473.374 89.9776 473.374 89.9776C473.374 89.9776 475.501 79.7882 466.995 73.6748C466.995 73.6748 463.451 63.4854 464.16 61.4476C464.869 59.4099 442.896 67.5615 442.896 67.5615Z" fill="#FFB8B8"/>
<path d="M459.907 74.3543C452.642 76.9835 446.096 81.1649 440.77 86.5815C432.264 95.412 428.011 98.1292 428.011 98.1292C428.011 98.1292 418.088 101.525 421.632 117.829C423.404 125.98 422.164 135.15 420.48 142.282C417.909 153.351 416.631 164.66 416.671 176V183.04C416.671 183.04 351.461 314.142 373.434 322.973C395.407 331.803 415.253 334.521 416.671 332.483C418.088 330.444 443.605 224.476 443.605 224.476C443.605 224.476 450.693 337.917 468.413 337.917C486.133 337.917 515.193 333.162 515.193 333.162L479.044 197.305C479.044 197.305 487.55 174.209 466.286 157.906L463.451 150.434C475.21 150.44 480.585 79.115 468.413 72.9954C468.413 72.9954 465.577 70.9576 459.907 74.3543Z" fill="#2F2E41"/>
<path d="M442.188 111.036L432.265 136.169L408.874 183.04C408.874 183.04 398.242 213.608 406.748 213.608C415.253 213.608 421.632 184.398 421.632 184.398L447.858 145L462.742 109.677L442.188 111.036Z" fill="#FFB8B8"/>
<path d="M395.053 337.917C401.903 337.917 407.457 334.875 407.457 331.124C407.457 327.372 401.903 324.331 395.053 324.331C388.202 324.331 382.649 327.372 382.649 331.124C382.649 334.875 388.202 337.917 395.053 337.917Z" fill="#2F2E41"/>
<path d="M490.031 337.917C496.881 337.917 502.435 334.875 502.435 331.124C502.435 327.372 496.881 324.331 490.031 324.331C483.181 324.331 477.627 327.372 477.627 331.124C477.627 334.875 483.181 337.917 490.031 337.917Z" fill="#2F2E41"/>
<path d="M458.79 26.8982C457.804 26.9001 456.821 26.9937 455.855 27.1779C454.109 26.3655 452.194 25.9424 450.253 25.9404H449.744C439.94 25.9404 431.993 34.4422 431.993 44.9297H435.278L435.809 41.0598L436.587 44.9297H439.323C438.472 48.0349 438.044 51.2328 438.052 54.4434V73.7715H443.018L445.894 66.6102L445.175 73.7715H477.099L479.713 67.2615L479.059 73.7715H482.653V58.5954C482.653 41.0896 471.969 26.8982 458.79 26.8982Z" fill="#2F2E41"/>
<path d="M451.752 22.6597H456.437C457.406 22.6597 458.336 23.0288 459.021 23.6858C459.707 24.3428 460.092 25.2338 460.092 26.163V46.7482C460.092 47.6774 459.707 48.5684 459.021 49.2254C458.336 49.8824 457.406 50.2515 456.437 50.2515H451.752C451.271 50.2515 450.796 50.1609 450.352 49.9848C449.909 49.8088 449.506 49.5507 449.166 49.2254C448.827 48.9001 448.558 48.5139 448.374 48.0889C448.19 47.6638 448.096 47.2083 448.096 46.7482V26.163C448.096 25.2339 448.481 24.3428 449.166 23.6858C449.852 23.0288 450.782 22.6597 451.752 22.6597Z" fill="#D0CDE1"/>
<path d="M454.094 65.7721C460.056 65.7721 464.89 61.1395 464.89 55.4251C464.89 49.7106 460.056 45.0781 454.094 45.0781C448.131 45.0781 443.297 49.7106 443.297 55.4251C443.297 61.1395 448.131 65.7721 454.094 65.7721Z" fill="#00B77E"/>
<path d="M454.094 60.5985C457.075 60.5985 459.492 58.2819 459.492 55.4249C459.492 52.5677 457.075 50.2515 454.094 50.2515C451.113 50.2515 448.696 52.5677 448.696 55.4249C448.696 58.2819 451.113 60.5985 454.094 60.5985Z" fill="#D0CDE1"/>
<path d="M454.094 57.7242C455.419 57.7242 456.493 56.6947 456.493 55.4248C456.493 54.155 455.419 53.1255 454.094 53.1255C452.769 53.1255 451.694 54.155 451.694 55.4248C451.694 56.6947 452.769 57.7242 454.094 57.7242Z" fill="#00B77E"/>
</svg>
