<svg width="340" height="297" viewBox="0 0 340 297" fill="none" xmlns="http://www.w3.org/2000/svg">
<g clip-path="url(#clip0)">
<path d="M307.618 194.406C318.71 194.406 327.701 185.159 327.701 173.752C327.701 162.345 318.71 153.098 307.618 153.098C296.527 153.098 287.536 162.345 287.536 173.752C287.536 185.159 296.527 194.406 307.618 194.406Z" fill="#F2F2F2"/>
<path d="M215.981 194.406C227.073 194.406 236.064 185.159 236.064 173.752C236.064 162.345 227.073 153.098 215.981 153.098C204.89 153.098 195.899 162.345 195.899 173.752C195.899 185.159 204.89 194.406 215.981 194.406Z" fill="#F2F2F2"/>
<path d="M236.659 8.36426H187.568V68.338H236.659V8.36426Z" fill="#F2F2F2"/>
<path d="M249.256 68.7479H187.17V0H249.256V68.7479ZM187.966 67.9293H248.46V0.818644H187.966V67.9293Z" fill="#3F3D56"/>
<path d="M249.256 203.995H187.17V135.247H249.256V203.995ZM187.966 203.177H248.46V136.066H187.966V203.177Z" fill="#3F3D56"/>
<path d="M158.511 203.995H96.4255V135.247H158.511V203.995ZM97.2215 203.177H157.715V136.066H97.2215V203.177Z" fill="#3F3D56"/>
<path d="M340 203.995H277.914V135.247H340V203.995ZM278.71 203.177H339.204V136.066H278.71V203.177Z" fill="#3F3D56"/>
<path d="M218.611 68.3389H217.815V135.656H218.611V68.3389Z" fill="#3F3D56"/>
<path d="M309.355 135.657H308.559V98.1234H127.866V135.657H127.07V97.3047H309.355V135.657Z" fill="#3F3D56"/>
<path d="M228.328 27.4111H187.568V28.2298H228.328V27.4111Z" fill="#3F3D56"/>
<path d="M228.328 38.5547H187.568V39.3733H228.328V38.5547Z" fill="#3F3D56"/>
<path d="M228.328 49.6973H187.568V50.5159H228.328V49.6973Z" fill="#3F3D56"/>
<path d="M171.189 293.96H9.67212V294.686H171.189V293.96Z" fill="#3F3D56"/>
<path d="M127.468 194.406C140.778 194.406 151.568 183.309 151.568 169.621C151.568 155.933 140.778 144.836 127.468 144.836C114.159 144.836 103.369 155.933 103.369 169.621C103.369 183.309 114.159 194.406 127.468 194.406Z" fill="#0B8CBF"/>
<path d="M142.642 167.172H129.849V154.015H125.088V167.172H112.295V172.068H125.088V185.225H129.849V172.068H142.642V167.172Z" fill="white"/>
<path d="M218.213 194.815C213.367 194.815 208.631 193.338 204.603 190.569C200.574 187.801 197.434 183.866 195.58 179.263C193.726 174.659 193.241 169.593 194.186 164.706C195.131 159.819 197.464 155.33 200.89 151.806C204.316 148.283 208.681 145.883 213.433 144.911C218.185 143.939 223.111 144.438 227.587 146.345C232.063 148.251 235.889 151.481 238.581 155.624C241.273 159.767 242.71 164.638 242.71 169.621C242.702 176.3 240.119 182.704 235.527 187.428C230.934 192.151 224.707 194.808 218.213 194.815ZM218.213 145.245C213.525 145.245 208.943 146.675 205.045 149.353C201.147 152.032 198.109 155.839 196.315 160.293C194.522 164.747 194.052 169.648 194.967 174.377C195.881 179.105 198.139 183.448 201.453 186.857C204.768 190.266 208.991 192.588 213.589 193.528C218.186 194.469 222.952 193.986 227.283 192.141C231.614 190.296 235.315 187.172 237.92 183.163C240.524 179.155 241.914 174.442 241.914 169.621C241.907 163.158 239.407 156.963 234.964 152.393C230.521 147.823 224.496 145.253 218.213 145.245Z" fill="#3F3D56"/>
<path d="M233.784 172.478H202.641V166.764H233.784L233.784 172.478ZM203.437 171.66H232.988V167.582H203.437V171.66Z" fill="#3F3D56"/>
<path d="M308.957 194.815C304.112 194.815 299.376 193.338 295.347 190.569C291.319 187.801 288.179 183.866 286.325 179.263C284.47 174.659 283.985 169.593 284.93 164.706C285.876 159.819 288.209 155.33 291.635 151.806C295.061 148.283 299.426 145.883 304.178 144.911C308.93 143.939 313.855 144.438 318.331 146.344C322.808 148.251 326.634 151.481 329.326 155.624C332.017 159.767 333.454 164.638 333.454 169.621C333.447 176.3 330.864 182.704 326.271 187.427C321.679 192.151 315.452 194.808 308.957 194.815ZM308.957 145.245C304.269 145.245 299.687 146.675 295.789 149.353C291.892 152.032 288.854 155.839 287.06 160.293C285.266 164.747 284.797 169.648 285.711 174.376C286.626 179.105 288.883 183.448 292.198 186.857C295.512 190.266 299.735 192.588 304.333 193.528C308.931 194.469 313.696 193.986 318.027 192.141C322.358 190.296 326.06 187.172 328.664 183.163C331.268 179.155 332.658 174.442 332.658 169.621C332.651 163.158 330.152 156.963 325.708 152.393C321.265 147.823 315.241 145.253 308.957 145.245Z" fill="#3F3D56"/>
<path d="M315.104 176.849V172.477H294.575V166.763H315.104V162.352L323.563 169.864L315.104 176.849ZM295.371 171.659H315.9V175.141L322.319 169.84L315.9 164.14V167.582H295.371V171.659Z" fill="#3F3D56"/>
<path d="M101.72 147.016C101.72 147.016 110.193 165.168 104.545 165.894C98.8964 166.62 97.4844 149.557 97.4844 149.557L101.72 147.016Z" fill="#FFB9B9"/>
<path d="M69.5969 263.191L75.245 273.485L65.0078 280.073L62.5632 267.918L69.5969 263.191Z" fill="#FFB9B9"/>
<path d="M72.0089 274.917C72.0089 274.917 75.1101 269.724 76.2318 270.593C77.3535 271.463 81.9801 275.229 81.9801 275.229L88.0064 281.165C88.0064 281.165 108.367 283.379 95.4293 290.716C82.4919 298.052 75.3423 291.969 75.3423 291.969C75.3423 291.969 57.2222 292.938 57.5145 287.739C57.8068 282.54 63.6506 274.314 63.6506 274.314C63.6506 274.314 71.0159 279.392 72.0089 274.917Z" fill="#2F2E41"/>
<path opacity="0.1" d="M72.0089 274.917C72.0089 274.917 75.1101 269.724 76.2318 270.593C77.3535 271.463 81.9801 275.229 81.9801 275.229L88.0064 281.165C88.0064 281.165 108.367 283.379 95.4293 290.716C82.4919 298.052 75.3423 291.969 75.3423 291.969C75.3423 291.969 57.2222 292.938 57.5145 287.739C57.8068 282.54 63.6506 274.314 63.6506 274.314C63.6506 274.314 71.0159 279.392 72.0089 274.917Z" fill="black"/>
<path d="M44.5334 146.833L49.8285 212.727C49.8285 212.727 50.005 252.118 55.6532 259.742C61.3013 267.366 61.4778 271.178 61.4778 271.178L73.127 265.006C73.127 265.006 69.2439 264.643 71.0089 262.102C72.774 259.561 78.0691 262.102 73.127 258.472C68.1849 254.841 67.1259 254.722 68.3614 253.148C69.123 252.15 69.665 250.993 69.9499 249.758L66.7729 209.097L72.774 138.302L44.5334 146.833Z" fill="#2F2E41"/>
<path opacity="0.1" d="M44.5334 146.833L49.8285 212.727C49.8285 212.727 50.005 252.118 55.6532 259.742C61.3013 267.366 61.4778 271.178 61.4778 271.178L73.127 265.006C73.127 265.006 69.2439 264.643 71.0089 262.102C72.774 259.561 78.0691 262.102 73.127 258.472C68.1849 254.841 67.1259 254.722 68.3614 253.148C69.123 252.15 69.665 250.993 69.9499 249.758L66.7729 209.097L72.774 138.302L44.5334 146.833Z" fill="black"/>
<path d="M59.0069 263.191L54.0648 276.624L39.9446 271.179L48.7697 261.739L59.0069 263.191Z" fill="#FFB9B9"/>
<path d="M51.9952 270.851C51.9952 270.851 57.2714 267.459 57.931 268.816C58.5905 270.173 61.2286 275.938 61.2286 275.938L64.1964 284.417C64.1964 284.417 82.3334 296.287 66.8345 296.965C51.3357 297.643 47.3786 288.486 47.3786 288.486C47.3786 288.486 29.9012 280.686 32.5393 275.938C35.1774 271.19 44.4107 266.266 44.4107 266.266C44.4107 266.266 49.0274 274.581 51.9952 270.851Z" fill="#2F2E41"/>
<path d="M89.3653 147.015L92.1893 207.645C92.1893 207.645 78.4221 247.944 66.4199 254.479C66.4199 254.479 66.4199 262.466 63.5958 263.918C62.7543 264.365 62.0084 264.98 61.4021 265.729C60.7958 266.477 60.3414 267.343 60.0657 268.274L44.5334 264.281C44.5334 264.281 48.4165 260.287 47.0045 258.472C45.5925 256.657 51.5936 252.663 51.5936 252.663L67.1259 213.817C67.1259 213.817 69.5969 212.728 70.3029 209.097C71.0089 205.467 72.421 205.467 68.8909 204.741C65.3608 204.014 65.3608 200.384 65.3608 200.384L53.7116 145.2L89.3653 147.015Z" fill="#2F2E41"/>
<path d="M76.6571 51.8966C84.4555 51.8966 90.7774 45.3949 90.7774 37.3746C90.7774 29.3543 84.4555 22.8525 76.6571 22.8525C68.8587 22.8525 62.5369 29.3543 62.5369 37.3746C62.5369 45.3949 68.8587 51.8966 76.6571 51.8966Z" fill="#FFB9B9"/>
<path d="M64.1255 38.2812C64.1255 38.2812 63.0664 56.7968 61.6544 58.6121C60.2424 60.4273 76.4807 60.0643 76.4807 60.0643C76.4807 60.0643 75.4217 44.4531 76.4807 43.0009C77.5397 41.5487 64.1255 38.2812 64.1255 38.2812Z" fill="#FFB9B9"/>
<path d="M59.36 52.9853C59.36 52.9853 72.7742 51.5331 77.7163 55.8897C79.2951 57.2759 80.9864 58.5203 82.7719 59.6093C84.2631 60.5292 85.5054 61.8199 86.3846 63.3628C87.2637 64.9057 87.7515 66.6513 87.803 68.4388L90.4245 151.009C90.4245 151.009 50.5348 147.379 43.1217 151.009C43.1217 151.009 42.7687 142.659 42.0627 141.57C41.548 140.776 40.6581 109.111 40.2135 92.0071C39.9627 82.3549 43.1882 72.8868 49.4818 65.7221C51.6214 63.2864 54.0119 61.2447 56.5359 60.2463C56.5359 60.2463 55.8299 53.3483 59.36 52.9853Z" fill="#0B8CBF"/>
<path d="M80.8931 60.2462C82.8802 60.784 84.6686 61.9137 86.0336 63.4933C87.3985 65.073 88.2793 67.0322 88.5651 69.1249L93.6013 105.991L100.661 135.398C100.661 135.398 104.192 138.665 102.779 140.48C101.367 142.296 104.545 149.92 104.545 149.92L95.7194 152.824C95.7194 152.824 94.6603 145.2 92.8953 144.837C91.3442 144.518 73.98 96.8121 69.7945 85.2551C69.2174 83.6616 68.8909 82.7553 68.8909 82.7553C68.8909 82.7553 69.5969 58.4309 80.8931 60.2462Z" fill="#0B8CBF"/>
<path opacity="0.1" d="M69.0676 82.5742L90.4245 141.994C90.4245 141.994 69.7736 101.816 69.0676 82.5742Z" fill="black"/>
<path d="M69.2804 41.654C70.4746 41.5807 71.6406 41.9957 72.8265 42.1576C77.0692 42.737 81.4829 39.5706 82.4197 35.2757C82.4948 34.7037 82.6605 34.1483 82.9103 33.6315C83.5633 32.5351 85.0504 32.326 86.2763 32.5781C87.5022 32.8303 88.6643 33.4203 89.9127 33.4877C91.8404 33.5917 93.691 32.3712 94.7183 30.6905C95.7456 29.0098 96.0365 26.9417 95.8978 24.9616L94.9737 25.9591C94.5982 25.1421 94.4532 24.2331 94.5553 23.3355C94.0656 23.2014 93.5506 23.1988 93.0597 23.328C92.5687 23.4572 92.1182 23.7138 91.7514 24.0734C90.9365 24.1626 91.5515 22.519 90.9461 21.951C90.6927 21.7131 90.304 21.758 89.9609 21.7614C88.2274 21.7786 86.8251 20.415 85.4591 19.3173C83.0923 17.4196 80.3246 16.1212 77.3797 15.5271C75.4222 15.1344 73.3408 15.0713 71.4844 15.8209C69.9599 16.4366 68.6839 17.5579 67.5033 18.7254C64.597 21.5995 62.0234 24.9764 60.8144 28.9322C59.8314 32.1723 59.8036 35.6393 60.7343 38.8956C61.2215 40.5868 62.6898 46.3784 64.8393 46.5133C67.5402 46.6827 65.9186 41.8602 69.2804 41.654Z" fill="#2F2E41"/>
</g>
<defs>
<clipPath id="clip0">
<rect width="340" height="297" fill="white"/>
</clipPath>
</defs>
</svg>
